<svg xmlns="http://www.w3.org/2000/svg" viewBox="0 0 1211.19 250.29"><defs><style>.cls-1{isolation:isolate;}.cls-2{mix-blend-mode:multiply;}.cls-3{fill:#3f280f;}.cls-4{fill:#fff;}</style></defs><title>Prancheta 1</title><g class="cls-1"><g id="Camada_1" data-name="Camada 1"><g class="cls-2"><path class="cls-3" d="M173.87,126.72c.36-2.67.79-5.35,1.28-8s.91-5.41,1.27-8.2q-9.48.36-19.69.45t-20,.09a2.3,2.3,0,0,0-1.64,1.28q-3.64,6.2-9.21,15.5t-11.39,19.32l-20.6,35.18c-.37.61-.67,1.1-.91,1.46a7.59,7.59,0,0,0-.73,1.46v-.18l-.92,1.82a8,8,0,0,1-1.64,2.74,1.75,1.75,0,0,1-1.27.54.84.84,0,0,0-.37.09.7.7,0,0,1-.36.1.73.73,0,0,0-.46.09.37.37,0,0,1-.27.09c-1.09.48-1.82.12-2.19-1.1a3.14,3.14,0,0,1-.45-1.45,12.88,12.88,0,0,1-.09-1.46l1.27-2.74,1.82-4.56L100,157.35q3.64-6.19,7.38-12.58t7.29-12.4q3.56-6,6.65-11.3t5.29-9.12Q96.94,114.51,68,117.61t-57.88,7.65l-.37-3.64a.39.39,0,0,0,.28-.09.37.37,0,0,1,.27-.1h-.18l2.28-.72a14.79,14.79,0,0,1,2.64-.55q9.3-2,19.51-4.19t19.87-3.83q12.95-2.55,26.34-4.2t26.35-3.1l12.57-1.45q.91,0,2-.09c.73-.06,1.4-.1,2-.1,1.1-.12,2.38-.21,3.83-.27s2.8-.09,4-.09c.49,0,.85-.37,1.1-1.09l11.48-17.14q4.2-6.37,8.3-12.58t8.29-12.4Q173.87,41,187.54,23l6-7.84L195,12.23v.37a1.3,1.3,0,0,1,.91-1.28c.6-.24,1.24-.51,1.91-.82a4.7,4.7,0,0,1,1.92-.45q3.83,0,3.82,4.55l-1.82,9.85q-1.81,8.75-3.55,17.5t-3.38,17.5c-.48,2.55-1,5.17-1.55,7.84s-1.06,5.35-1.55,8q-1.28,6.93-2.64,14t-3,13.94l3.65.55,7.84,1.64a8,8,0,0,1,2.73,1.55c1,.79,1.4,1.49,1.28,2.1l.18-.37c-.12,1.58-.7,2.53-1.73,2.83a5.72,5.72,0,0,1-3,.09c-1.58,0-3.53-.06-5.83-.18a49.91,49.91,0,0,1-5.65-.55,1.69,1.69,0,0,0-.92.91q-.9,5.3-2.18,13t-2.92,16.22q-1.1,5.66-2.1,11.49t-1.91,11.3q-.91,5.47-1.73,10.3t-1.37,8.11q-1.64,9.12-2.73,18.23-.56,5.83-1.37,11.58t-1.73,11.39l-1.64,10.94v4.38a4.11,4.11,0,0,1-.19,1,6.1,6.1,0,0,1-.36,1,1.54,1.54,0,0,1-.09.46,1.23,1.23,0,0,0-.09.45,1.45,1.45,0,0,1-1.64,1.64h-.73c-1.22,0-1.83-.54-1.83-1.64l-.36-2.37a13.16,13.16,0,0,1-.37-3.28l.37-6.56q.18-3.11.27-6.29c.06-2.13.21-4.22.46-6.29q.9-8.21,1.82-16.5t1.82-16.5c.12-1.09.37-2.73.73-4.92s.76-4.59,1.19-7.2.91-5.38,1.46-8.3,1.06-5.71,1.55-8.38c.48-2.92.94-5.56,1.36-7.93s.76-4.22,1-5.56q.54-3.65,1.18-7.39C172.93,131.62,173.38,129.15,173.87,126.72Zm13.67-91.88q-12,16.41-23.7,33t-22.6,34.45h37q2-10,3.92-20t4.11-20q2-9.66,4.28-18.78t4.28-18.78c-1.21,1.71-2.46,3.38-3.73,5S188.64,33.14,187.54,34.84Zm-9.48,68.91a3.1,3.1,0,0,1,.09-.73,3,3,0,0,0,.09-.73h1.65Zm16.77-78.94.55-3.1c-.12,0,.06.19.55.55s.6.55.36.55Z"/><path class="cls-3" d="M240,103.75c-.85,1.09-1.67,2.22-2.46,3.37s-1.55,2.28-2.28,3.38q-2.55,3.82-5.19,7.93t-5.2,8.66v-.19l-1.82,4c-1.34,2.44-2.4,4.53-3.19,6.29s-1.67,3.92-2.64,6.48a196.58,196.58,0,0,0-5.29,19,105.45,105.45,0,0,0-2.55,19.5v2.37a10.62,10.62,0,0,1-.09,1.28,11.94,11.94,0,0,0-.1,1.46A12.13,12.13,0,0,1,208,189.8a3.83,3.83,0,0,1-2.55,1.46,5.79,5.79,0,0,1-3-.82,4.46,4.46,0,0,1-1.92-2.28q-.72-3.82-1.09-7.48c-.12-1.46-.21-2.88-.27-4.28s-.1-2.76-.1-4.1c0-2.55.1-5.17.28-7.84s.45-5.23.82-7.66q.91-7.47,2.28-15.77t2.91-16.68q1.56-8.38,3.2-16.5t3.28-15.22q2-9.12,4.19-18.59t4.19-18.24Q222.72,45.6,225,35t4.47-20.78l.73-2.92a17.65,17.65,0,0,0,.27-2.19,5.31,5.31,0,0,1,.46-2,2.74,2.74,0,0,1,1.55-1.64,2.87,2.87,0,0,1,2,0,4,4,0,0,1,1.74,1.27A2.77,2.77,0,0,1,236.76,9l-2.55,13.49q-.92,4.38-1.55,8.66c-.43,2.86-.94,5.69-1.55,8.48q-1.46,7.29-3.37,15.68T224,70.57q-2,8.58-4,17.05t-3.65,17q-1.46,8-2.82,16.14t-2.64,16.31l-.55,2.74a103.2,103.2,0,0,1,12.4-23.43,166.49,166.49,0,0,1,18-21,1.76,1.76,0,0,1,2.37,0c1.34.72,1.58,1.64.73,2.73Z"/><path class="cls-3" d="M283.25,97.19a33.77,33.77,0,0,1-5.11,6.74q-4.18,3.84-8.66,7.84t-9.2,7.66a35.92,35.92,0,0,1-5.93,3.37q-3.37,1.56-7,3l-1.82.91a11.22,11.22,0,0,1-5.92.55,9.3,9.3,0,0,1-7.48-6.75,13.06,13.06,0,0,1-.27-6,39.5,39.5,0,0,1,1.73-6.2c.79-2.19,1.61-4.31,2.46-6.38a46.54,46.54,0,0,1,5.29-10A42.44,42.44,0,0,1,249,83.51l-.36.19A10.68,10.68,0,0,1,251,82l3.1-1.74a.87.87,0,0,0,.45-.18.93.93,0,0,1,.46-.18,11.48,11.48,0,0,1,2.46.36,6.37,6.37,0,0,1,2.28.92,8.07,8.07,0,0,1,.46,2.36,5.62,5.62,0,0,1-.28,2.38V85.7a33.72,33.72,0,0,1-2.09,4.74q-1.2,2.19-2.46,4.2l-1.28,1.64q-2.73,4-5.84,7.93a84.23,84.23,0,0,1-6.56,7.38,4.94,4.94,0,0,0-1.27,2.37,11,11,0,0,0-.37,2.73q.92,1.65,2.19,1.65a36.89,36.89,0,0,0,4.92-1.55,20.26,20.26,0,0,0,4.56-2.47,65.76,65.76,0,0,0,12.49-7.47q5.73-4.38,11-9.12a14.55,14.55,0,0,0,2.64-2.09,15,15,0,0,1,2.64-2.1l2.37-1.46a1.53,1.53,0,0,1,2.19.46,1.65,1.65,0,0,1,0,2.28Z"/><path class="cls-3" d="M348.69,100.83c-.49.61-.94,1.22-1.37,1.83a3.36,3.36,0,0,1-1.55,1.27q-5.1,5.83-9.75,10.39t-9,8.57a17.34,17.34,0,0,1-3,2.46q-2.65,1.92-5,3.56c-1,.73-1.91,1.4-2.82,2s-1.86,1.28-2.83,2a3.38,3.38,0,0,1-2.18.73q-4.75,1.64-7.84-.18t-3.47-6.75q0-3.82.28-7.75t.63-7.93c.12-1.7.28-3.49.46-5.37s.46-3.8.82-5.75a12.57,12.57,0,0,0-3.28,1.92c-1,.79-2,1.67-3.1,2.64a61.4,61.4,0,0,0-6.11,5.83,28.62,28.62,0,0,0-4.65,6.93,11.08,11.08,0,0,1-2.37,2.37,2.64,2.64,0,0,1-3.1.18,3.32,3.32,0,0,1-2.37-2.28,13.2,13.2,0,0,1-.36-3L278,107c.48-2.31.91-4.58,1.27-6.83a62.71,62.71,0,0,1,1.46-6.66,4.87,4.87,0,0,1,.18-1.46,4.3,4.3,0,0,1,.55-1.09V89.9c0-.37.3-.67.91-.92A11.73,11.73,0,0,1,284,87.62a2.88,2.88,0,0,1,1.28-.64c1.58,0,2.49.52,2.73,1.55a12,12,0,0,1,.37,2.64l-.73,5.29v-.18l-.73,4.55v1.28l3.46-3.1a42,42,0,0,1,5-3.64q2.64-1.65,5.56-3.1,4.19-1.83,6.74-.1T310,98.65q-.18,2.55-.45,5.28c-.19,1.83-.4,3.59-.64,5.29l-.55,5.29a42.45,42.45,0,0,0-.36,5.56v5.38a3.28,3.28,0,0,0,.36.91,1.41,1.41,0,0,0,.91-.28c.24-.18.55-.39.91-.63q3.84-2.57,7.39-5.38t7-5.93q3.64-3.65,7.65-6.93t8-6.38l2-1.45a20,20,0,0,1,2-1.74c.73-.54,1.4-1.06,2-1.55l1.46-.91c.61-.48,1.27-.36,2,.37l.55.91a1.59,1.59,0,0,1,0,2.55Z"/><path class="cls-3" d="M342.67,126a4.35,4.35,0,0,1,.09-.82,3.59,3.59,0,0,0,.1-.82q.18-1.63.36-2.82a19.12,19.12,0,0,1,.55-2.47c.36-1.94.76-3.88,1.18-5.83s.82-3.89,1.19-5.83l2.73-11.85a6.79,6.79,0,0,1,1-2.19,2.78,2.78,0,0,1,2.83-1.09c1.58,0,2.55.48,2.92,1.45a8.41,8.41,0,0,1,.54,2.92l-.91,5.11L354,109a64.35,64.35,0,0,1-1.1,6.83c-.48,2.25-.91,4.53-1.27,6.84a9.67,9.67,0,0,0-.19,2v1.82a1.15,1.15,0,0,1,.28.45.41.41,0,0,0,.45.28l3.1-1.82q7.47-4.74,14.4-10t13.86-11.12a2,2,0,0,1,1.73-.55,2.33,2.33,0,0,1,1.37.91,3.61,3.61,0,0,1,.64,1.83,3.36,3.36,0,0,1-.28,1.82,49.53,49.53,0,0,1-3.55,3.55c-1.28,1.16-2.52,2.4-3.74,3.74L376,119.43q-4.18,3.64-8.65,7.11a81.89,81.89,0,0,1-9.94,6.56c-.61.25-1.25.52-1.91.82l-3,1.37q-5.65,1.1-8.39-4.56l-1.46-4.37Zm17.14-33a2.09,2.09,0,0,1-.55-.09,3,3,0,0,0-.73-.09,13.58,13.58,0,0,0-1.36-.27,3.39,3.39,0,0,1-1.55-.82,20.51,20.51,0,0,1-2.74-2.46c-.85-.91-1.64-1.79-2.37-2.65a2.88,2.88,0,0,1-.36-1.82,9.9,9.9,0,0,1,.18-2.19,2.22,2.22,0,0,1,.46-.63l.45-.46h.91a3,3,0,0,0,.73-.09,3,3,0,0,1,.73-.09h.55a4.33,4.33,0,0,1,1.18.27,1.92,1.92,0,0,1,1.19,1.19,2.52,2.52,0,0,1,.55.82,2.39,2.39,0,0,0,.54.82,5.47,5.47,0,0,0,.55.73A23.44,23.44,0,0,1,360,87.71a24.89,24.89,0,0,0,1.82,2.55,3,3,0,0,0-.18.91,1.52,1.52,0,0,0-.18.64,1,1,0,0,1-.36.64Z"/><path class="cls-3" d="M434.19,101.38a44.23,44.23,0,0,1-4.28,6c-1.64,1.94-3.38,3.89-5.2,5.83a82.79,82.79,0,0,1-10.48,9.48q-5.75,4.38-12.31,8.57h.18a34.57,34.57,0,0,1-6,3.19,15.07,15.07,0,0,1-7.29,1q-10-.54-10.94-11.3a29.59,29.59,0,0,1,.45-8.3,63.83,63.83,0,0,1,2.28-8.29q2.19-5.1,4.65-9.85a33.94,33.94,0,0,1,6.11-8.38,11.37,11.37,0,0,1,10-4.19,7.47,7.47,0,0,1,5.84,3.73q1.82,3.19,0,7.39a1.58,1.58,0,0,1-2.74.54,2.13,2.13,0,0,1-.91-2l-.36-.91.18.91a3.82,3.82,0,0,0-2.55-2,4,4,0,0,0-3.1.55c-.73.85-1.52,1.82-2.37,2.92a18.77,18.77,0,0,0-2,3.1,51.14,51.14,0,0,0-6.74,16,28.74,28.74,0,0,0-.82,4.28,36.69,36.69,0,0,0-.28,4.29,3,3,0,0,0,1.1,2.73,6,6,0,0,0,2.73.91,15,15,0,0,0,3.38-.36,9.9,9.9,0,0,0,3.19-1.46c1.09-.61,2.15-1.21,3.19-1.82s1.73-1,2.09-1.28l2.92-1.82-.18.18q6.19-4.56,12.94-9.75a143,143,0,0,0,12-10.3,3.67,3.67,0,0,1,1-1.46c.42-.37.94-.79,1.54-1.28a1.39,1.39,0,0,1,1.83-.36,1.78,1.78,0,0,1,.91,1.64Z"/><path class="cls-3" d="M476.85,97.19a33.77,33.77,0,0,1-5.11,6.74q-4.2,3.84-8.66,7.84t-9.2,7.66A35.92,35.92,0,0,1,448,122.8q-3.37,1.56-7,3l-1.82.91a11.25,11.25,0,0,1-5.93.55,9.27,9.27,0,0,1-7.47-6.75,13.06,13.06,0,0,1-.27-6,39.5,39.5,0,0,1,1.73-6.2c.79-2.19,1.61-4.31,2.46-6.38a46.54,46.54,0,0,1,5.29-10,42.13,42.13,0,0,1,7.65-8.39l-.36.19A10.23,10.23,0,0,1,444.58,82l3.1-1.74a.87.87,0,0,0,.45-.18.93.93,0,0,1,.46-.18,11.48,11.48,0,0,1,2.46.36,6.37,6.37,0,0,1,2.28.92,7.78,7.78,0,0,1,.45,2.36,5.63,5.63,0,0,1-.27,2.38V85.7a33.73,33.73,0,0,1-2.1,4.74q-1.19,2.19-2.46,4.2l-1.27,1.64q-2.74,4-5.84,7.93a84.23,84.23,0,0,1-6.56,7.38A5,5,0,0,0,434,114a11.46,11.46,0,0,0-.36,2.73q.92,1.65,2.19,1.65a36.89,36.89,0,0,0,4.92-1.55,20.26,20.26,0,0,0,4.56-2.47,65.76,65.76,0,0,0,12.49-7.47q5.73-4.38,11-9.12a14.28,14.28,0,0,0,2.65-2.09,15,15,0,0,1,2.64-2.1l2.37-1.46a1.53,1.53,0,0,1,2.19.46,1.65,1.65,0,0,1,0,2.28Z"/><path class="cls-3" d="M598.26,68l-4.93,4.19q-3.47,2.75-6.47,5.56c-2,1.89-4,3.74-6.1,5.56A180,180,0,0,0,566.08,97.1q-6.47,6.83-12.67,13.58h.18l-4,4.19a85.91,85.91,0,0,0-9.39,11.67q-4.28,6.37-8.47,12.76-3.84,6.39-7.75,14.31a121.72,121.72,0,0,0-6.47,15.59,60.35,60.35,0,0,0-1.74,7.56,19.62,19.62,0,0,0,.28,7.75q1.46,9.86,10.75,10.58a18.94,18.94,0,0,0,9.48-.19,136.92,136.92,0,0,0,17-4.65,78.77,78.77,0,0,0,15.86-7.56q9.3-5.1,18-10.21a187.85,187.85,0,0,0,16.31-10.76q8.92-6.56,17-13.67t16-14.58l3.64-3.65V130a188.49,188.49,0,0,0,13.4-13.67q6.48-7.29,12-14.77,3.63-4.74,6.83-9.84a62.26,62.26,0,0,0,5.2-10.21c.73-2.31,1.39-4.68,2-7.11a51.11,51.11,0,0,0,1.28-7.47,29.74,29.74,0,0,0-1.37-10,27.29,27.29,0,0,0-5.19-9.3v.18a57.88,57.88,0,0,0-27.35-17.5,92,92,0,0,0-19.51-4.37,131.73,131.73,0,0,0-19.5-.73A82.21,82.21,0,0,0,590.14,27a113.15,113.15,0,0,0-16.31,4.92A157.84,157.84,0,0,0,545.75,45.6a97.48,97.48,0,0,0-23.7,20.6c-1.09,1.21-2.12,2.34-3.1,3.37A36.91,36.91,0,0,0,516,73.12a15,15,0,0,1-3.28,2.74,20.15,20.15,0,0,0-3.47,2.73c0-.24-.24-.42-.73-.54a1.32,1.32,0,0,1-.91-.55,3,3,0,0,1-.45-1.28,1.47,1.47,0,0,1,.45-1.27l1.1-2a5.52,5.52,0,0,1,1-1.64,11.78,11.78,0,0,0,1-1.28,117.93,117.93,0,0,1,21.06-22A144.09,144.09,0,0,1,557.6,31.19a127.3,127.3,0,0,1,55.61-12.94,129.49,129.49,0,0,1,17.13,1.09,86.44,86.44,0,0,1,23.34,5.84,80.28,80.28,0,0,1,11.76,6A70.6,70.6,0,0,1,676.1,39.4a46.86,46.86,0,0,1,9.12,12.94,34.63,34.63,0,0,1,3.1,14.59,40.6,40.6,0,0,1-.37,5.65,37.65,37.65,0,0,1-.91,4.55,102.84,102.84,0,0,1-6.47,15.23,97.21,97.21,0,0,1-7.93,12.48l-3.83,4.93q-2.92,3.47-5.56,7.11l-5,6.92c-1,.49-1.52,1-1.64,1.46l-10.93,10.39q-6.93,6.57-14,13.13t-14.77,12.58q-7.65,6.19-16,12a200.41,200.41,0,0,1-17,10.76,31.69,31.69,0,0,0-3.47,2c-1.09.73-2.31,1.46-3.65,2.19q-3.65,2-7.56,4.1a63.25,63.25,0,0,1-8.48,3.74h.18q-6.74,2.73-13.58,4.83A82.88,82.88,0,0,1,533,204a24.43,24.43,0,0,1-5.92,0,37,37,0,0,1-6.11-1.28,19.4,19.4,0,0,1-7.75-4.74,21.12,21.12,0,0,1-4.65-7.65,26.35,26.35,0,0,1-1.27-4.93,31.36,31.36,0,0,1-.37-4.92,35.34,35.34,0,0,1,.28-4.56c.18-1.45.39-2.91.63-4.37a116.63,116.63,0,0,1,4.11-12.76,103.13,103.13,0,0,1,5.74-12.4c.24-.48.82-1.43,1.73-2.83s1.91-2.94,3-4.64h-.18q1.82-3.1,3.55-6.11c1.15-2,2.34-4,3.56-6.11q4-5.64,8.38-11T546.85,105l2-2.19q7.67-8.2,15.22-15.77t16.14-14.86H580L596.8,57.63v.18a10.43,10.43,0,0,1,1.55-1.28,3.39,3.39,0,0,1,1.91-.54.41.41,0,0,0,.28-.09.37.37,0,0,1,.27-.1l-.73.19a9.43,9.43,0,0,1,2.55-.82,6.1,6.1,0,0,1,3.1.27,3.53,3.53,0,0,1,2.1,2.64,20.9,20.9,0,0,1,.27,3.19,8.91,8.91,0,0,1-.55,2.74c-.24,1.94-.51,3.8-.82,5.56s-.63,3.62-1,5.56c-.61,3.4-1.18,6.78-1.73,10.12s-1.13,6.77-1.73,10.3q-1.47,9.66-3.83,19.87t-4.74,19.14l-1.64,6.2a8.12,8.12,0,0,1-1.1,2.73,1.49,1.49,0,0,1-2.18.55,3,3,0,0,1-1.37-1.82,5.4,5.4,0,0,1-.09-2.19v-.55l.73-5.28c.24-2.68.51-5.35.82-8s.7-5.34,1.18-8l1.28-8q.92-6.19,1.73-12.21T595,86.07L596.62,77Z"/><path class="cls-3" d="M716,84.61a6.21,6.21,0,0,1,3.65.91,6.33,6.33,0,0,1,1.46-1.64,5.46,5.46,0,0,1,3.37-1,4.21,4.21,0,0,1,3,1.55,4.81,4.81,0,0,1,.91,2.46,8.42,8.42,0,0,1-.36,3.37c-.25,1.34-.55,2.71-.91,4.1s-.73,2.77-1.1,4.1v-.18q-1.27,4.74-2.28,9.75T721.68,118a14.28,14.28,0,0,0-.37,3.19,19.57,19.57,0,0,0,.37,3.56c.12,1,.84,1.39,2.18,1.27q1.1-.18,2.19-.45a9.49,9.49,0,0,0,1.82-.64q7.67-4.2,15.59-8.93A123.58,123.58,0,0,0,758.87,105c.84-.61,1.73-1.31,2.64-2.1s1.85-1.55,2.83-2.28c.72-.6,1.6-1.27,2.64-2a20.46,20.46,0,0,0,2.64-2.19,3.2,3.2,0,0,1,2.37-.91,1.67,1.67,0,0,1,1.55.73,1.75,1.75,0,0,1,.09,1.64,5.57,5.57,0,0,0-.54,1,1.8,1.8,0,0,1-.92.82,136.43,136.43,0,0,1-11.85,12.85,70.13,70.13,0,0,1-13.67,10.3v-.18a67.33,67.33,0,0,1-7,4.65c-2.25,1.28-4.46,2.52-6.65,3.74v-.19l-1.64.92a13.12,13.12,0,0,1-4.29,1.64c-1.4.24-2.7.42-3.92.54a8.24,8.24,0,0,1-6.19-1.64,7.78,7.78,0,0,1-2.92-5.65,54.27,54.27,0,0,1,.55-12c.12-1.09.24-2,.36-2.83a13.08,13.08,0,0,1,.55-2.28,62.55,62.55,0,0,1-6.2,6.39q-3.28,2.91-6.93,5.65l.18-.19-.91.73c-.73.49-1.46,1-2.19,1.37a22.09,22.09,0,0,1-2.91,1.37q-4.74,1.81-6.75-.55t-1.64-7.11a40.39,40.39,0,0,1,2.46-10.12,43.54,43.54,0,0,1,5.75-10.75A35.89,35.89,0,0,1,705,87.89,18,18,0,0,1,716,84.61Zm2.37,6.2a16.53,16.53,0,0,0-7.2,3.1,35.31,35.31,0,0,0-6.56,6.19,43.9,43.9,0,0,0-5.2,7.93,30.74,30.74,0,0,0-2.91,8.12,80.92,80.92,0,0,0,9.48-7.93,61.12,61.12,0,0,0,8-9.76c.73-1.21,1.55-2.46,2.46-3.73s1.79-2.65,2.64-4.11A1.5,1.5,0,0,1,718.39,90.81Z"/><path class="cls-3" d="M861.86,99c-.48.73-1,1.52-1.45,2.37a38.48,38.48,0,0,1-2.19,3.28,92.61,92.61,0,0,1-9.48,9.85q-4.74,4.18-10.57,8.93L835.25,126a35.24,35.24,0,0,1-3.47,2.28,16.08,16.08,0,0,1-3.28,1.37l.19-.18c-2.44,1-4.44,1-6,0s-2.68-2.74-3.28-5.29a7.57,7.57,0,0,1-.37-2.46v-2.65q0-3.65.09-7.29c.06-2.43.16-4.92.28-7.47-.73.61-1.4,1.21-2,1.82s-1.21,1.22-1.82,1.82l-.91.73h.18a24.11,24.11,0,0,1-1.64,1.92q-1.1,1.18-2.37,2.46t-2.37,2.46c-.73.79-1.34,1.43-1.82,1.91a22.88,22.88,0,0,1-1.83,1.46l-.36.18q-4.56,3.47-7.48-2.18a23.84,23.84,0,0,1-.54-5.29,27.21,27.21,0,0,1-.09-3.92c.06-1.28.09-2.58.09-3.92v-2a.39.39,0,0,0-.28.09.37.37,0,0,1-.27.09q-3.11,2.73-5.83,5.19c-1.83,1.64-3.77,3.32-5.84,5a2.31,2.31,0,0,1-.91.82,2.3,2.3,0,0,0-.91.82c-.49.61-1,1.21-1.55,1.82s-1.06,1.22-1.55,1.82l-1.82,1.83a3.91,3.91,0,0,1-2.55,1.82h-.19a4,4,0,0,1-4.37.91q-2.19-.92-2.92-4.74v-3.1a2.11,2.11,0,0,1,.09-.64,1.74,1.74,0,0,0,.09-.63q.38-5.84,1-11.58a56.52,56.52,0,0,1,3.19-12.85,6.63,6.63,0,0,1,.36-.91,1.47,1.47,0,0,0,.18-.55,1.63,1.63,0,0,1,1.1-1.09,2.69,2.69,0,0,1,1.64.18c1.58,1.09,2.34,2.16,2.28,3.19a9.58,9.58,0,0,1-.82,3.19c-.37,3.28-.7,6.53-1,9.75s-.57,6.41-.82,9.57q2.19-2.55,4.74-5.19c1.7-1.76,3.65-3.62,5.84-5.56q2.37-2,4.56-3.83a31.39,31.39,0,0,1,4.74-3.28q4.54-2.55,6.83-1t2.28,6.66v9.66a3.28,3.28,0,0,1,.91-.91,3.16,3.16,0,0,0,.91-.91c1.7-2,3.53-3.89,5.47-5.84a33.5,33.5,0,0,1,6.2-4.92,1.41,1.41,0,0,1,.36-.27,2.19,2.19,0,0,0,.55-.46l.18-.18a.52.52,0,0,1,.28-.18q.09,0,.27-.18a1.22,1.22,0,0,0,.55-.55h-.18a4.79,4.79,0,0,1,4.92-.18A6.89,6.89,0,0,1,827.41,99v2.74q0,4.74-.09,9.48t-.46,9.84l.19.55a7.51,7.51,0,0,0,1.36-.91c.43-.37.88-.73,1.37-1.1v.18l4.92-4.19a25.76,25.76,0,0,1,3.1-2.64c1.1-.79,2.13-1.61,3.1-2.46a58.35,58.35,0,0,1,5.47-4.65c1.58-1.16,3-2.28,4.37-3.38l8.57-6.56c.37.12.79.25,1.28.37s.7.45,1,.63a1.31,1.31,0,0,1,.46,1.19Zm-58.15,10.21v0Z"/><path class="cls-3" d="M881.19,84.61a6.17,6.17,0,0,1,3.64.91,6.72,6.72,0,0,1,1.46-1.64,5.48,5.48,0,0,1,3.37-1,4.19,4.19,0,0,1,3,1.55,4.72,4.72,0,0,1,.91,2.46,8.42,8.42,0,0,1-.36,3.37c-.25,1.34-.55,2.71-.91,4.1s-.73,2.77-1.1,4.1v-.18q-1.28,4.74-2.27,9.75t-2.1,9.94a14.28,14.28,0,0,0-.37,3.19,19.57,19.57,0,0,0,.37,3.56c.12,1,.85,1.39,2.19,1.27.73-.12,1.45-.27,2.18-.45a9.87,9.87,0,0,0,1.83-.64q7.65-4.2,15.58-8.93A123.58,123.58,0,0,0,924,105q1.28-.91,2.64-2.1c.91-.79,1.85-1.55,2.83-2.28.73-.6,1.61-1.27,2.64-2a19.8,19.8,0,0,0,2.64-2.19,3.2,3.2,0,0,1,2.37-.91,1.67,1.67,0,0,1,1.55.73,1.72,1.72,0,0,1,.1,1.64,5.1,5.1,0,0,0-.55,1,1.77,1.77,0,0,1-.91.82,139.16,139.16,0,0,1-11.85,12.85,70.5,70.5,0,0,1-13.68,10.3v-.18a68.33,68.33,0,0,1-7,4.65c-2.25,1.28-4.47,2.52-6.66,3.74v-.19l-1.64.92a13.16,13.16,0,0,1-4.28,1.64c-1.4.24-2.71.42-3.92.54a8.26,8.26,0,0,1-6.2-1.64,7.81,7.81,0,0,1-2.92-5.65,54.88,54.88,0,0,1,.55-12c.12-1.09.24-2,.36-2.83a14,14,0,0,1,.55-2.28,62.55,62.55,0,0,1-6.2,6.39q-3.29,2.91-6.93,5.65l.19-.19-.91.73c-.73.49-1.46,1-2.19,1.37a23,23,0,0,1-2.92,1.37q-4.74,1.81-6.74-.55t-1.65-7.11a40,40,0,0,1,2.47-10.12,43.5,43.5,0,0,1,5.74-10.75,35.75,35.75,0,0,1,8.66-8.48A18,18,0,0,1,881.19,84.61Zm2.37,6.2a16.48,16.48,0,0,0-7.2,3.1,35.36,35.36,0,0,0-6.57,6.19A44.39,44.39,0,0,0,864.6,108a30.43,30.43,0,0,0-2.92,8.12,80.92,80.92,0,0,0,9.48-7.93,60.58,60.58,0,0,0,8-9.76c.73-1.21,1.55-2.46,2.46-3.73s1.8-2.65,2.65-4.11A1.56,1.56,0,0,1,883.56,90.81Z"/><path class="cls-3" d="M943.72,116.15h.18l.91-.73-3.28-4-4-4.74a11.75,11.75,0,0,1-3.1-6.66,15.55,15.55,0,0,1,.91-7,23.76,23.76,0,0,1,2.37-4c1-1.33,1.82-2.43,2.55-3.28a53.4,53.4,0,0,1,6.38-6.38l3.47-3.46a4.73,4.73,0,0,1,1.45-.82l2.37-1a2.14,2.14,0,0,0,.55-.1,2.53,2.53,0,0,1,.55-.09,4.9,4.9,0,0,1,2.55,1.28,1.68,1.68,0,0,1,.18,2.55l-.91,1.1a104.38,104.38,0,0,0-7.93,7.65,47.36,47.36,0,0,0-6.29,8.39A7.88,7.88,0,0,0,941.8,98a5.34,5.34,0,0,0,.82,3.19l2.92,3.64v-.18c1.09,1.34,1.94,2.4,2.55,3.19s1.4,1.86,2.37,3.19q5.65-3.45,10.85-6.38t10.48-5.28Q977.07,97,982.64,95t11.94-3.65a1.48,1.48,0,0,1,1.64.28,2,2,0,0,1,.73,1.55.37.37,0,0,0,.09.27.37.37,0,0,1,.09.27,1.64,1.64,0,0,1-1.46,1.65l-3.46,1.82h.18l-8,4.19-12.76,6.38h.18l-8,5.11.18-.19c-1.22.86-2.49,1.68-3.83,2.46l-3.83,2.28.37.73,2.73,8a22.87,22.87,0,0,1,.37,4.2,12.31,12.31,0,0,1-.73,4.19,57.47,57.47,0,0,1-6.93,14.13,42,42,0,0,1-10.57,10.85,9.76,9.76,0,0,1-3.28,2.18,6.18,6.18,0,0,0-2,.92,14.76,14.76,0,0,1-6.93.82,12,12,0,0,1-5.74-2.37,11.51,11.51,0,0,1-3.65-4.93,12.75,12.75,0,0,1-.63-6.65,39.34,39.34,0,0,1,2.91-9.66,43.12,43.12,0,0,1,5.11-8.39,61.6,61.6,0,0,1,6.29-6.74c2.12-2,4.22-3.83,6.29-5.66Zm6.38,6a.54.54,0,0,0-.19-.36l-1.82,1.46a111.14,111.14,0,0,0-9.21,7.93,51.89,51.89,0,0,0-7.93,9.75,20.46,20.46,0,0,0-3.28,10.21A3.89,3.89,0,0,0,929,154.7a3.31,3.31,0,0,0,3.46.46l-.18.18c1-.36,1.79-.69,2.46-1a5.19,5.19,0,0,0,1.55-1,37.55,37.55,0,0,0,9.57-9.3,60.21,60.21,0,0,0,6.29-11.3l-.18.18a9.34,9.34,0,0,0,.18-5.47A37.9,37.9,0,0,0,950.1,122.16Z"/><path class="cls-3" d="M1034.32,101.38a43.46,43.46,0,0,1-4.29,6c-1.64,1.94-3.37,3.89-5.19,5.83a82.79,82.79,0,0,1-10.48,9.48q-5.75,4.38-12.31,8.57h.18a34.94,34.94,0,0,1-6,3.19,15.1,15.1,0,0,1-7.3,1q-10-.54-10.93-11.3a29.22,29.22,0,0,1,.45-8.3,63.83,63.83,0,0,1,2.28-8.29q2.19-5.1,4.65-9.85a33.69,33.69,0,0,1,6.11-8.38,11.37,11.37,0,0,1,10-4.19,7.47,7.47,0,0,1,5.84,3.73q1.81,3.19,0,7.39a1.58,1.58,0,0,1-2.74.54,2.13,2.13,0,0,1-.91-2l-.36-.91.18.91a3.82,3.82,0,0,0-2.55-2,4,4,0,0,0-3.1.55c-.73.85-1.52,1.82-2.37,2.92a18.77,18.77,0,0,0-2,3.1,50.68,50.68,0,0,0-6.74,16,28.74,28.74,0,0,0-.82,4.28,34.63,34.63,0,0,0-.28,4.29,3,3,0,0,0,1.1,2.73,6,6,0,0,0,2.73.91,14.82,14.82,0,0,0,3.37-.36,9.71,9.71,0,0,0,3.19-1.46c1.1-.61,2.16-1.21,3.2-1.82s1.73-1,2.09-1.28l2.92-1.82-.18.18q6.2-4.56,12.94-9.75a144.63,144.63,0,0,0,12-10.3,3.65,3.65,0,0,1,1-1.46c.43-.37.94-.79,1.55-1.28a1.39,1.39,0,0,1,1.83-.36,1.8,1.8,0,0,1,.91,1.64Z"/><path class="cls-3" d="M1077,97.19a33.77,33.77,0,0,1-5.11,6.74q-4.2,3.84-8.66,7.84t-9.21,7.66a35.4,35.4,0,0,1-5.92,3.37q-3.37,1.56-7,3l-1.82.91a11.25,11.25,0,0,1-5.93.55,9.27,9.27,0,0,1-7.47-6.75,13.19,13.19,0,0,1-.28-6,40.71,40.71,0,0,1,1.74-6.2c.79-2.19,1.61-4.31,2.46-6.38a46.54,46.54,0,0,1,5.29-10,41.84,41.84,0,0,1,7.65-8.39l-.36.19a10.23,10.23,0,0,1,2.37-1.73l3.1-1.74a.87.87,0,0,0,.45-.18.9.9,0,0,1,.46-.18,11.57,11.57,0,0,1,2.46.36,6.37,6.37,0,0,1,2.28.92,7.78,7.78,0,0,1,.45,2.36,5.63,5.63,0,0,1-.27,2.38V85.7a33.73,33.73,0,0,1-2.1,4.74q-1.18,2.19-2.46,4.2l-1.27,1.64q-2.74,4-5.84,7.93a85.89,85.89,0,0,1-6.56,7.38,5,5,0,0,0-1.28,2.37,11.46,11.46,0,0,0-.36,2.73q.92,1.65,2.19,1.65a37.35,37.35,0,0,0,4.92-1.55,20.26,20.26,0,0,0,4.56-2.47,65.37,65.37,0,0,0,12.48-7.47q5.74-4.38,11-9.12a14.28,14.28,0,0,0,2.65-2.09,15,15,0,0,1,2.64-2.1l2.37-1.46a1.53,1.53,0,0,1,2.19.46,1.67,1.67,0,0,1,0,2.28Z"/><path class="cls-3" d="M1142.42,100.83c-.49.61-.94,1.22-1.37,1.83a3.41,3.41,0,0,1-1.55,1.27q-5.1,5.83-9.75,10.39t-9,8.57a16.66,16.66,0,0,1-3,2.46q-2.65,1.92-5,3.56c-1,.73-1.91,1.4-2.82,2s-1.86,1.28-2.83,2a3.38,3.38,0,0,1-2.19.73q-4.74,1.64-7.84-.18c-2.06-1.22-3.22-3.47-3.46-6.75q0-3.82.27-7.75t.64-7.93c.12-1.7.27-3.49.46-5.37s.45-3.8.82-5.75a12.57,12.57,0,0,0-3.28,1.92c-1,.79-2,1.67-3.1,2.64a61.4,61.4,0,0,0-6.11,5.83,28.06,28.06,0,0,0-4.65,6.93,11.08,11.08,0,0,1-2.37,2.37,2.64,2.64,0,0,1-3.1.18,3.32,3.32,0,0,1-2.37-2.28,13.2,13.2,0,0,1-.36-3l1.27-7.48c.49-2.31.92-4.58,1.28-6.83a60.33,60.33,0,0,1,1.46-6.66,4.87,4.87,0,0,1,.18-1.46,4.3,4.3,0,0,1,.55-1.09V89.9c0-.37.3-.67.91-.92a11.73,11.73,0,0,1,1.64-1.36A2.88,2.88,0,0,1,1079,87c1.57,0,2.49.52,2.73,1.55a11.93,11.93,0,0,1,.36,2.64l-.72,5.29v-.18l-.73,4.55v1.28l3.46-3.1a42.67,42.67,0,0,1,5-3.64c1.76-1.1,3.62-2.13,5.56-3.1q4.2-1.83,6.75-.1t2.37,6.48c-.12,1.7-.27,3.46-.46,5.28s-.39,3.59-.63,5.29l-.55,5.29a40.78,40.78,0,0,0-.37,5.56v5.38a3.12,3.12,0,0,0,.37.91,1.45,1.45,0,0,0,.91-.28c.24-.18.55-.39.91-.63q3.83-2.57,7.38-5.38t7-5.93q3.64-3.65,7.66-6.93t8-6.38l2-1.45a18,18,0,0,1,2-1.74c.73-.54,1.4-1.06,2-1.55l1.46-.91c.6-.48,1.27-.36,2,.37l.55.91a1.59,1.59,0,0,1,0,2.55Z"/><path class="cls-3" d="M1174,97.37a16.24,16.24,0,0,1-.73,5.1A60,60,0,0,0,1187.54,98a74.41,74.41,0,0,0,12.85-7.75,1.59,1.59,0,0,1,1.82-.27,2,2,0,0,1,1.1,1.55l.18.18a1.48,1.48,0,0,1-.09.45,2.11,2.11,0,0,0-.09.64l-1.1,2.74a48.82,48.82,0,0,1-14.49,10.12,56.68,56.68,0,0,1-17.23,4.1h-.91V110a27.54,27.54,0,0,1-3.65,5.65,46,46,0,0,1-5.37,5.56,36.94,36.94,0,0,1-6.29,4.47,21.17,21.17,0,0,1-6.2,2.37q-6.19.54-8.75-3.1a12.57,12.57,0,0,1-2.19-7.11,20.24,20.24,0,0,1,1.28-6.84c.85-2.37,1.58-4.58,2.18-6.65l.92-2.37v-.73a11.46,11.46,0,0,1-.55-4.56,14.62,14.62,0,0,1,1.09-4.56,16.82,16.82,0,0,1,2.37-4,11.4,11.4,0,0,1,3.47-2.91,28.16,28.16,0,0,1,5-2.1,19.14,19.14,0,0,1,5.74-.82q7.11,0,11.21,4.65A15.41,15.41,0,0,1,1174,97.37Zm-13.31,13.31a26.48,26.48,0,0,1-13.31-2.92,23,23,0,0,0-1.82,5.93,32.89,32.89,0,0,0-.55,5.56,2,2,0,0,0,2.73,1.27,20.06,20.06,0,0,0,7.39-3.55A19.55,19.55,0,0,0,1160.65,110.68Zm1.82-7.84a8.79,8.79,0,0,0,1.73-.09c.18-.06.4-.34.64-.82h-.18c.36-1.22.66-2.31.91-3.28a11.47,11.47,0,0,0,.36-2.74,5.86,5.86,0,0,0-1.09-3.28,11.8,11.8,0,0,0-3.83-3.28q-5.84-.55-9.57,1.91t-2.82,7.93a.71.71,0,0,0,.54.73,43.25,43.25,0,0,0,6.66,2.1A29.44,29.44,0,0,0,1162.47,102.84Z"/></g><path class="cls-4" d="M171.79,123.55q.54-4,1.27-8c.49-2.67.91-5.4,1.28-8.2q-9.48.36-19.69.46t-20.06.09a2.31,2.31,0,0,0-1.64,1.27q-3.64,6.21-9.2,15.5T112.35,144l-20.6,35.19c-.36.61-.67,1.09-.91,1.46a8.08,8.08,0,0,0-.73,1.45v-.18l-.91,1.82a8.15,8.15,0,0,1-1.64,2.74,1.76,1.76,0,0,1-1.28.55.8.8,0,0,0-.36.09.84.84,0,0,1-.37.09.71.71,0,0,0-.45.09.37.37,0,0,1-.27.09c-1.1.49-1.83.12-2.19-1.09a3.11,3.11,0,0,1-.46-1.46c-.06-.61-.09-1.1-.09-1.46l1.28-2.73,1.82-4.56L98,154.18l7.39-12.58q3.73-6.37,7.29-12.39t6.65-11.31q3.1-5.28,5.29-9.11Q94.86,111.34,66,114.44T8.08,122.1l-.37-3.65a.37.37,0,0,0,.27-.09.39.39,0,0,1,.28-.09H8.08c.72-.24,1.48-.49,2.27-.73A15.64,15.64,0,0,1,13,117l19.51-4.19q10.2-2.19,19.87-3.83,12.93-2.55,26.34-4.19t26.34-3.1l12.58-1.46q.92,0,2-.09c.73-.06,1.39-.09,2-.09,1.1-.12,2.37-.21,3.83-.28s2.79-.09,4-.09c.48,0,.85-.36,1.09-1.09l11.49-17.14q4.19-6.37,8.29-12.58t8.3-12.39q13.13-18.6,26.8-36.65l6-7.84,1.46-2.91v.36a1.28,1.28,0,0,1,.91-1.27c.61-.25,1.25-.52,1.92-.82a4.49,4.49,0,0,1,1.91-.46q3.83,0,3.83,4.56l-1.82,9.84q-1.83,8.76-3.56,17.5t-3.37,17.5c-.49,2.56-1,5.17-1.55,7.84s-1.06,5.35-1.55,8q-1.28,6.93-2.64,14t-3,14l3.65.54,7.84,1.64a8.29,8.29,0,0,1,2.73,1.55c1,.8,1.4,1.49,1.28,2.1l.18-.36c-.12,1.58-.7,2.52-1.73,2.82a5.52,5.52,0,0,1-3,.09q-2.37,0-5.84-.18a50.16,50.16,0,0,1-5.65-.55,1.7,1.7,0,0,0-.91.92q-.91,5.28-2.19,12.94t-2.91,16.22q-1.09,5.65-2.1,11.49t-1.91,11.3q-.92,5.48-1.74,10.3c-.54,3.22-1,5.93-1.36,8.12q-1.65,9.11-2.74,18.23-.54,5.83-1.37,11.57t-1.73,11.4l-1.64,10.93v4.38a3.92,3.92,0,0,1-.18,1,7.41,7.41,0,0,1-.36,1,1.61,1.61,0,0,1-.1.45,1.48,1.48,0,0,0-.09.46,1.45,1.45,0,0,1-1.64,1.64h-.73c-1.21,0-1.82-.55-1.82-1.64l-.36-2.37a13.27,13.27,0,0,1-.37-3.28l.37-6.57c.12-2.07.21-4.16.27-6.29s.21-4.22.46-6.29q.9-8.21,1.82-16.5t1.82-16.49c.12-1.1.37-2.74.73-4.93s.76-4.58,1.19-7.2.91-5.38,1.45-8.29,1.07-5.71,1.55-8.39c.49-2.91.94-5.56,1.37-7.93s.76-4.22,1-5.56c.37-2.43.76-4.89,1.19-7.38S171.3,126,171.79,123.55Zm13.67-91.88q-12,16.41-23.7,33T139.15,99.13h37q2-10,3.92-20t4.1-20q2-9.66,4.29-18.78t4.28-18.77c-1.22,1.7-2.46,3.37-3.74,5S186.55,30,185.46,31.67ZM176,100.58a3,3,0,0,1,.09-.72,3.1,3.1,0,0,0,.09-.73h1.64Zm16.77-78.93.55-3.1c-.13,0,.06.18.54.54s.61.55.37.55Z"/><path class="cls-4" d="M238,100.58c-.85,1.1-1.67,2.22-2.46,3.38s-1.55,2.28-2.28,3.37q-2.55,3.83-5.2,7.93t-5.19,8.66v-.18l-1.82,4c-1.34,2.43-2.41,4.53-3.19,6.29s-1.68,3.92-2.65,6.47a195.27,195.27,0,0,0-5.28,19A106.31,106.31,0,0,0,207.33,179v2.37a10.47,10.47,0,0,1-.09,1.27,12,12,0,0,0-.09,1.46,12.63,12.63,0,0,1-1.27,2.55,3.79,3.79,0,0,1-2.56,1.46,5.75,5.75,0,0,1-3-.82A4.36,4.36,0,0,1,198.4,185c-.48-2.55-.85-5-1.09-7.47-.12-1.46-.21-2.89-.28-4.29s-.09-2.76-.09-4.1q0-3.82.28-7.84t.82-7.66q.92-7.47,2.27-15.76t2.92-16.69q1.56-8.37,3.19-16.49t3.28-15.23q2-9.1,4.2-18.59t4.19-18.23q2.55-10.22,4.83-20.78t4.47-20.79l.73-2.91A18.16,18.16,0,0,0,228.39,6a5.54,5.54,0,0,1,.45-2,2.83,2.83,0,0,1,1.55-1.64,2.9,2.9,0,0,1,2,0,4,4,0,0,1,1.73,1.28,2.73,2.73,0,0,1,.55,2.19l-2.55,13.49q-.91,4.37-1.55,8.66c-.43,2.85-1,5.68-1.55,8.47q-1.47,7.31-3.37,15.68T221.92,67.4q-2,8.58-4,17t-3.65,17q-1.45,8-2.83,16.13T208.79,134l-.54,2.73a103.57,103.57,0,0,1,12.39-23.43,168,168,0,0,1,18.05-21,1.76,1.76,0,0,1,2.37,0q2,1.1.73,2.73Z"/><path class="cls-4" d="M281.16,94a33.63,33.63,0,0,1-5.1,6.75q-4.2,3.83-8.66,7.84t-9.21,7.65a35.4,35.4,0,0,1-5.92,3.37q-3.37,1.56-7,3l-1.82.91a11.16,11.16,0,0,1-5.93.55,9.28,9.28,0,0,1-7.47-6.74,13.23,13.23,0,0,1-.28-6,41,41,0,0,1,1.74-6.2c.79-2.19,1.61-4.31,2.46-6.38a47.42,47.42,0,0,1,5.28-10,42.13,42.13,0,0,1,7.66-8.38l-.36.18a10.53,10.53,0,0,1,2.37-1.73l3.1-1.73a.82.82,0,0,0,.45-.19.87.87,0,0,1,.46-.18,11.15,11.15,0,0,1,2.46.37,6.2,6.2,0,0,1,2.28.91,7.92,7.92,0,0,1,.45,2.37,5.6,5.6,0,0,1-.27,2.37v-.18a34.26,34.26,0,0,1-2.1,4.74q-1.18,2.18-2.46,4.19L252,93.11q-2.75,4-5.84,7.93a84.41,84.41,0,0,1-6.56,7.38,5,5,0,0,0-1.28,2.37,11.54,11.54,0,0,0-.36,2.74,2.59,2.59,0,0,0,2.19,1.64,36.35,36.35,0,0,0,4.92-1.55,20.64,20.64,0,0,0,4.56-2.46,65.93,65.93,0,0,0,12.48-7.48q5.75-4.37,11-9.11a15.5,15.5,0,0,0,2.65-2.1,15,15,0,0,1,2.64-2.09l2.37-1.46a1.52,1.52,0,0,1,2.19.45,1.67,1.67,0,0,1,0,2.28Z"/><path class="cls-4" d="M346.61,97.67c-.49.61-.95,1.21-1.37,1.82a3.5,3.5,0,0,1-1.55,1.28q-5.1,5.83-9.75,10.39t-9,8.57a17.46,17.46,0,0,1-3,2.46c-1.76,1.27-3.43,2.46-5,3.55q-1.45,1.1-2.82,2c-.92.61-1.86,1.27-2.83,2a3.38,3.38,0,0,1-2.19.73q-4.74,1.65-7.84-.18t-3.46-6.75q0-3.83.27-7.74c.18-2.62.4-5.26.64-7.93.12-1.7.27-3.5.46-5.38s.45-3.8.82-5.74a12.27,12.27,0,0,0-3.28,1.91c-1,.79-2,1.67-3.1,2.64a61.49,61.49,0,0,0-6.11,5.84,28,28,0,0,0-4.65,6.92,10.64,10.64,0,0,1-2.37,2.37,2.64,2.64,0,0,1-3.1.19,3.36,3.36,0,0,1-2.37-2.28,13.29,13.29,0,0,1-.36-3l1.27-7.47c.49-2.31.91-4.59,1.28-6.84a59.66,59.66,0,0,1,1.46-6.65,4.78,4.78,0,0,1,.18-1.46,4.35,4.35,0,0,1,.55-1.1V86.73c0-.37.3-.67.91-.91a11.78,11.78,0,0,1,1.64-1.37,3,3,0,0,1,1.27-.64c1.58,0,2.49.52,2.74,1.55a12.09,12.09,0,0,1,.36,2.65l-.73,5.28v-.18l-.73,4.56v1.27l3.47-3.1a42.67,42.67,0,0,1,5-3.64c1.76-1.1,3.62-2.13,5.56-3.1,2.8-1.21,5-1.25,6.75-.09s2.49,3.31,2.37,6.47c-.12,1.7-.28,3.46-.46,5.29s-.39,3.58-.64,5.28l-.54,5.29a40.89,40.89,0,0,0-.37,5.56v5.38a3,3,0,0,0,.37.91,1.51,1.51,0,0,0,.91-.27c.24-.19.55-.4.91-.64q3.83-2.55,7.38-5.38t7-5.92a103,103,0,0,1,7.66-6.93q4-3.28,8-6.38l2-1.46a16.91,16.91,0,0,1,2-1.73c.73-.55,1.4-1.07,2-1.55L345.7,92c.6-.49,1.27-.37,2,.36l.55.91a1.59,1.59,0,0,1,0,2.55Z"/><path class="cls-4" d="M340.59,122.83a4.19,4.19,0,0,1,.09-.82,4.36,4.36,0,0,0,.09-.83c.12-1.09.25-2,.37-2.82a20.27,20.27,0,0,1,.54-2.46c.37-1.94.76-3.89,1.19-5.84s.82-3.88,1.18-5.83l2.74-11.85a6.58,6.58,0,0,1,1-2.19,2.78,2.78,0,0,1,2.83-1.09c1.57,0,2.55.49,2.91,1.46a8.11,8.11,0,0,1,.55,2.91l-.91,5.11-1.28,7.29a64.93,64.93,0,0,1-1.09,6.84c-.49,2.25-.91,4.53-1.28,6.83a10.43,10.43,0,0,0-.18,2v1.82a1.17,1.17,0,0,1,.27.46.43.43,0,0,0,.46.27l3.1-1.82q7.47-4.74,14.4-10t13.86-11.12a2.06,2.06,0,0,1,1.73-.55,2.35,2.35,0,0,1,1.37.92,4,4,0,0,1,.36,3.64,49.64,49.64,0,0,1-3.55,3.56,52.61,52.61,0,0,0-3.74,3.73L374,116.26c-2.8,2.43-5.68,4.81-8.66,7.11a83.79,83.79,0,0,1-9.93,6.57c-.61.24-1.25.51-1.92.82l-3,1.36q-5.64,1.09-8.38-4.55l-1.46-4.38Zm17.14-33a2.44,2.44,0,0,1-.55-.09,3.1,3.1,0,0,0-.73-.09c-.49-.12-.94-.21-1.37-.28a3.49,3.49,0,0,1-1.55-.82,21.07,21.07,0,0,1-2.73-2.46q-1.28-1.36-2.37-2.64a2.83,2.83,0,0,1-.37-1.83,9.06,9.06,0,0,1,.19-2.18,2.3,2.3,0,0,1,.45-.64c.18-.18.34-.33.46-.46h.91a3.1,3.1,0,0,0,.73-.09,3,3,0,0,1,.73-.09h.55a4.41,4.41,0,0,1,1.18.27,2,2,0,0,1,1.19,1.19,2.44,2.44,0,0,1,.54.82,2.32,2.32,0,0,0,.55.82,4.71,4.71,0,0,0,.55.73,24.89,24.89,0,0,1,1.82,2.55,22.5,22.5,0,0,0,1.82,2.55,3.07,3.07,0,0,0-.18.92,1.45,1.45,0,0,0-.18.63,1,1,0,0,1-.37.64Z"/><path class="cls-4" d="M432.11,98.21a43.7,43.7,0,0,1-4.29,6q-2.46,2.92-5.19,5.83a81.39,81.39,0,0,1-10.49,9.48q-5.73,4.38-12.3,8.57H400a34.94,34.94,0,0,1-6,3.19,15.24,15.24,0,0,1-7.3,1q-10-.56-10.94-11.31a29.16,29.16,0,0,1,.46-8.29,63.53,63.53,0,0,1,2.28-8.3q2.19-5.1,4.65-9.84a33.77,33.77,0,0,1,6.1-8.39,11.39,11.39,0,0,1,10-4.19,7.48,7.48,0,0,1,5.84,3.74c1.21,2.12,1.21,4.59,0,7.38a1.64,1.64,0,0,1-1.19,1.09,1.61,1.61,0,0,1-1.55-.54,2.14,2.14,0,0,1-.91-2l-.37-.91.19.91a3.8,3.8,0,0,0-2.56-2,4,4,0,0,0-3.09.54c-.73.85-1.53,1.83-2.37,2.92a17.92,17.92,0,0,0-2,3.1,50.91,50.91,0,0,0-6.75,16,31.69,31.69,0,0,0-.82,4.29,36.41,36.41,0,0,0-.27,4.28,3.05,3.05,0,0,0,1.09,2.73,6.05,6.05,0,0,0,2.74.92,14.32,14.32,0,0,0,3.37-.37,9.8,9.8,0,0,0,3.19-1.46c1.1-.6,2.16-1.21,3.19-1.82s1.73-1,2.1-1.28l2.92-1.82-.19.18q6.2-4.55,13-9.75a144.36,144.36,0,0,0,12-10.3,3.62,3.62,0,0,1,1-1.46c.43-.36.94-.79,1.55-1.28a1.39,1.39,0,0,1,1.82-.36,1.79,1.79,0,0,1,.92,1.64Z"/><path class="cls-4" d="M474.76,94a33.63,33.63,0,0,1-5.1,6.75q-4.2,3.83-8.66,7.84t-9.21,7.65a35.4,35.4,0,0,1-5.92,3.37q-3.37,1.56-7,3l-1.82.91a11.16,11.16,0,0,1-5.93.55,9.28,9.28,0,0,1-7.47-6.74,13.23,13.23,0,0,1-.28-6,41,41,0,0,1,1.74-6.2c.79-2.19,1.61-4.31,2.46-6.38a46.52,46.52,0,0,1,5.28-10,42.13,42.13,0,0,1,7.66-8.38l-.36.18a10.53,10.53,0,0,1,2.37-1.73l3.09-1.73a.85.85,0,0,0,.46-.19.87.87,0,0,1,.46-.18,11.15,11.15,0,0,1,2.46.37,6.2,6.2,0,0,1,2.28.91,7.92,7.92,0,0,1,.45,2.37,5.6,5.6,0,0,1-.27,2.37v-.18a34.26,34.26,0,0,1-2.1,4.74q-1.18,2.18-2.46,4.19l-1.28,1.64q-2.73,4-5.83,7.93a84.41,84.41,0,0,1-6.56,7.38,5,5,0,0,0-1.28,2.37,11.54,11.54,0,0,0-.36,2.74,2.59,2.59,0,0,0,2.18,1.64,36,36,0,0,0,4.93-1.55,20.56,20.56,0,0,0,4.55-2.46,66,66,0,0,0,12.49-7.48q5.75-4.37,11-9.11a15,15,0,0,0,2.64-2.1A14.71,14.71,0,0,1,472,90.38l2.37-1.46a1.52,1.52,0,0,1,2.19.45,1.67,1.67,0,0,1,0,2.28Z"/><path class="cls-4" d="M596.17,64.85l-4.92,4.2q-3.46,2.73-6.47,5.56c-2,1.88-4,3.73-6.11,5.56A179.79,179.79,0,0,0,564,93.93q-6.48,6.84-12.67,13.58h.18l-4,4.19a84.41,84.41,0,0,0-9.39,11.67q-4.29,6.39-8.48,12.76-3.82,6.39-7.75,14.31A123.79,123.79,0,0,0,515.41,166a60.49,60.49,0,0,0-1.73,7.57,19.45,19.45,0,0,0,.27,7.75q1.47,9.84,10.76,10.57a19,19,0,0,0,9.48-.18,140.86,140.86,0,0,0,16.95-4.65A78.89,78.89,0,0,0,567,179.52q9.29-5.1,18-10.21a189.52,189.52,0,0,0,16.32-10.75q8.93-6.57,17-13.68t16-14.58l3.64-3.65v.19a188.65,188.65,0,0,0,13.4-13.68q6.46-7.29,11.94-14.76,3.65-4.74,6.84-9.85a61.79,61.79,0,0,0,5.19-10.21q1.1-3.45,2-7.11a51.11,51.11,0,0,0,1.28-7.47,29.77,29.77,0,0,0-1.37-10,27.49,27.49,0,0,0-5.2-9.3v.19a57.73,57.73,0,0,0-27.34-17.5,92.27,92.27,0,0,0-19.51-4.38A131.86,131.86,0,0,0,605.65,22a82.18,82.18,0,0,0-17.59,1.82,111.57,111.57,0,0,0-16.31,4.93,157.12,157.12,0,0,0-28.08,13.67A97.92,97.92,0,0,0,520,63c-1.09,1.22-2.13,2.34-3.1,3.37A38.69,38.69,0,0,0,514,70a15,15,0,0,1-3.28,2.73,19.62,19.62,0,0,0-3.46,2.74c0-.25-.25-.43-.73-.55a1.27,1.27,0,0,1-.91-.55,2.93,2.93,0,0,1-.46-1.27,1.46,1.46,0,0,1,.46-1.28l1.09-2a5.68,5.68,0,0,1,1-1.64,14.57,14.57,0,0,0,1-1.27A118.25,118.25,0,0,1,529.72,44.8,144.31,144.31,0,0,1,555.52,28a127.16,127.16,0,0,1,55.6-12.95,129.5,129.5,0,0,1,17.14,1.1A86.43,86.43,0,0,1,651.59,22a79.36,79.36,0,0,1,11.76,6A70.6,70.6,0,0,1,674,36.23a46.81,46.81,0,0,1,9.11,12.94,34.47,34.47,0,0,1,3.1,14.59A38.69,38.69,0,0,1,685,74a102.69,102.69,0,0,1-6.48,15.22,96.25,96.25,0,0,1-7.93,12.49l-3.82,4.92q-2.93,3.47-5.56,7.11t-5,6.93c-1,.48-1.52,1-1.64,1.46l-10.94,10.39q-6.93,6.56-14,13.12t-14.77,12.58q-7.66,6.21-15.95,12A196.56,196.56,0,0,1,581.77,181a31.6,31.6,0,0,0-3.46,2c-1.1.72-2.31,1.45-3.65,2.18q-3.64,2-7.56,4.11a64.53,64.53,0,0,1-8.48,3.73h.18q-6.75,2.75-13.58,4.83a82.14,82.14,0,0,1-14.31,3,23.54,23.54,0,0,1-5.93,0,37,37,0,0,1-6.1-1.27,19.55,19.55,0,0,1-7.75-4.74,21,21,0,0,1-4.65-7.66,27.11,27.11,0,0,1-1.28-4.92,32.77,32.77,0,0,1-.36-4.93,37.22,37.22,0,0,1,.27-4.55c.19-1.46.4-2.92.64-4.38a115.11,115.11,0,0,1,4.1-12.76,105.44,105.44,0,0,1,5.74-12.4q.38-.72,1.74-2.82l3-4.65h-.19c1.22-2.07,2.4-4.1,3.56-6.11s2.34-4,3.55-6.11q4-5.64,8.39-11t9.11-10.67l2-2.19q7.65-8.2,15.22-15.77t16.14-14.85h-.19l16.78-14.59v.18a10.18,10.18,0,0,1,1.54-1.27,3.35,3.35,0,0,1,1.92-.55.37.37,0,0,0,.27-.09.38.38,0,0,1,.28-.09l-.73.18a9.67,9.67,0,0,1,2.55-.82,6.22,6.22,0,0,1,3.1.27,3.51,3.51,0,0,1,2.09,2.65,19.69,19.69,0,0,1,.28,3.19,8.8,8.8,0,0,1-.55,2.73c-.24,1.95-.52,3.8-.82,5.56S604,70,603.65,72q-.92,5.12-1.73,10.12t-1.74,10.3q-1.45,9.66-3.82,19.87t-4.74,19.14l-1.64,6.2a8.09,8.09,0,0,1-1.1,2.74,1.5,1.5,0,0,1-2.19.54,3.06,3.06,0,0,1-1.36-1.82,5.07,5.07,0,0,1-.09-2.19v-.54L586,131c.24-2.67.51-5.35.82-8s.69-5.35,1.18-8l1.28-8q.9-6.19,1.73-12.21t1.91-11.85l1.64-9.11Z"/><path class="cls-4" d="M713.94,81.44a6.28,6.28,0,0,1,3.65.91,6.51,6.51,0,0,1,1.46-1.64,5.44,5.44,0,0,1,3.37-1,4.23,4.23,0,0,1,3,1.55,4.81,4.81,0,0,1,.91,2.46,8.25,8.25,0,0,1-.37,3.37c-.24,1.34-.54,2.71-.91,4.11S724.33,94,724,95.3v-.19q-1.28,4.76-2.28,9.76t-2.1,9.93a14.93,14.93,0,0,0-.36,3.19,20.4,20.4,0,0,0,.36,3.56c.12,1,.85,1.4,2.19,1.28.73-.12,1.46-.28,2.19-.46a8.49,8.49,0,0,0,1.82-.64q7.66-4.19,15.59-8.93a123.49,123.49,0,0,0,15.4-10.94c.85-.61,1.73-1.3,2.65-2.1s1.85-1.55,2.82-2.27q1.1-.92,2.64-2a19.93,19.93,0,0,0,2.65-2.19,3.23,3.23,0,0,1,2.37-.91,1.7,1.7,0,0,1,1.55.73,1.75,1.75,0,0,1,.09,1.64,5.1,5.1,0,0,0-.55,1,1.69,1.69,0,0,1-.91.82,139.27,139.27,0,0,1-11.85,12.86,70.94,70.94,0,0,1-13.67,10.3v-.19a64.28,64.28,0,0,1-7,4.65q-3.37,1.92-6.65,3.74v-.18l-1.65.91A12.77,12.77,0,0,1,725,130.3c-1.4.25-2.71.43-3.92.55a8.31,8.31,0,0,1-6.2-1.64,7.82,7.82,0,0,1-2.91-5.66,54.3,54.3,0,0,1,.54-12c.12-1.09.24-2,.37-2.82a14,14,0,0,1,.54-2.28,61.35,61.35,0,0,1-6.19,6.38q-3.29,2.91-6.93,5.65l.18-.18-.91.73c-.73.48-1.46.94-2.19,1.36a21.08,21.08,0,0,1-2.92,1.37q-4.73,1.83-6.74-.55c-1.34-1.57-1.88-3.94-1.64-7.11A39.57,39.57,0,0,1,688.51,104a43.9,43.9,0,0,1,5.74-10.76,35.93,35.93,0,0,1,8.66-8.48A18.05,18.05,0,0,1,713.94,81.44Zm2.37,6.2a16.65,16.65,0,0,0-7.2,3.1,34.74,34.74,0,0,0-6.56,6.2,43.21,43.21,0,0,0-5.2,7.93,30.73,30.73,0,0,0-2.92,8.11,78.38,78.38,0,0,0,9.48-7.93,61.08,61.08,0,0,0,8-9.75c.73-1.22,1.55-2.46,2.46-3.74s1.79-2.64,2.64-4.1A1.64,1.64,0,0,1,716.31,87.64Z"/><path class="cls-4" d="M859.78,95.84c-.48.73-1,1.53-1.46,2.37a35.66,35.66,0,0,1-2.18,3.29,94.47,94.47,0,0,1-9.48,9.84q-4.75,4.2-10.58,8.93l-2.91,2.56a36.11,36.11,0,0,1-3.47,2.27,15.76,15.76,0,0,1-3.28,1.37l.18-.18c-2.43,1-4.44,1-6,0s-2.68-2.74-3.29-5.29a7.85,7.85,0,0,1-.36-2.46V115.9q0-3.65.09-7.29c.06-2.43.15-4.93.27-7.48-.72.61-1.39,1.22-2,1.82l-1.82,1.83-.92.73h.19c-.37.48-.91,1.12-1.64,1.91s-1.52,1.61-2.37,2.46-1.64,1.67-2.37,2.46-1.34,1.43-1.83,1.92a22.42,22.42,0,0,1-1.82,1.46l-.36.18q-4.56,3.46-7.48-2.19a23.81,23.81,0,0,1-.55-5.29,28.69,28.69,0,0,1-.09-3.92c.06-1.27.09-2.58.09-3.92v-2a.37.37,0,0,0-.27.09.37.37,0,0,1-.27.09c-2.07,1.82-4,3.56-5.84,5.2s-3.77,3.31-5.83,5a2.3,2.3,0,0,1-.91.82,2.31,2.31,0,0,0-.91.82c-.49.61-1,1.22-1.55,1.82s-1.07,1.22-1.55,1.83l-1.82,1.82a3.93,3.93,0,0,1-2.56,1.82h-.18a4,4,0,0,1-4.38.91q-2.18-.9-2.91-4.74V111a2,2,0,0,1,.09-.64,2.06,2.06,0,0,0,.09-.64q.38-5.83,1-11.58a57.59,57.59,0,0,1,3.19-12.85,7.07,7.07,0,0,1,.37-.91,1.41,1.41,0,0,0,.18-.55,1.64,1.64,0,0,1,1.09-1.09,2.71,2.71,0,0,1,1.65.18c1.57,1.09,2.33,2.16,2.27,3.19a9,9,0,0,1-.82,3.19c-.36,3.28-.7,6.54-1,9.75s-.58,6.42-.82,9.58q2.19-2.56,4.74-5.2c1.7-1.76,3.65-3.61,5.83-5.56,1.58-1.34,3.1-2.61,4.56-3.83a33.23,33.23,0,0,1,4.74-3.28q4.56-2.55,6.84-1t2.28,6.65v9.66a3.28,3.28,0,0,1,.91-.91,3.42,3.42,0,0,0,.91-.91c1.7-1.94,3.52-3.89,5.47-5.83a33.15,33.15,0,0,1,6.2-4.93,1.41,1.41,0,0,1,.36-.27,2.81,2.81,0,0,0,.55-.45l.18-.19q.18-.18.27-.18a.52.52,0,0,0,.28-.18,1.15,1.15,0,0,0,.54-.55h-.18a4.81,4.81,0,0,1,4.93-.18,6.92,6.92,0,0,1,3.28,4.37v2.74q0,4.74-.09,9.48t-.46,9.84l.18.55a6.8,6.8,0,0,0,1.37-.91c.42-.37.88-.73,1.37-1.1v.19l4.92-4.2a25,25,0,0,1,3.1-2.64c1.09-.79,2.12-1.61,3.1-2.46a60.18,60.18,0,0,1,5.47-4.65c1.57-1.15,3-2.28,4.37-3.37l8.57-6.56c.36.12.79.24,1.28.36s.69.46,1,.64.45.58.45,1.18Zm-58.15,10.21v0Z"/><path class="cls-4" d="M879.1,81.44a6.28,6.28,0,0,1,3.65.91,6.51,6.51,0,0,1,1.46-1.64,5.44,5.44,0,0,1,3.37-1,4.21,4.21,0,0,1,3,1.55,4.81,4.81,0,0,1,.91,2.46,8.4,8.4,0,0,1-.36,3.37c-.25,1.34-.55,2.71-.92,4.11s-.72,2.76-1.09,4.1v-.19q-1.27,4.76-2.28,9.76t-2.09,9.93a14.35,14.35,0,0,0-.37,3.19,19.57,19.57,0,0,0,.37,3.56c.12,1,.84,1.4,2.18,1.28.73-.12,1.46-.28,2.19-.46a8.3,8.3,0,0,0,1.82-.64q7.66-4.19,15.59-8.93A123.58,123.58,0,0,0,922,101.86c.84-.61,1.73-1.3,2.64-2.1s1.85-1.55,2.83-2.27q1.08-.92,2.64-2a20.46,20.46,0,0,0,2.64-2.19,3.24,3.24,0,0,1,2.37-.91,1.69,1.69,0,0,1,1.55.73,1.75,1.75,0,0,1,.09,1.64,5.57,5.57,0,0,0-.54,1,1.76,1.76,0,0,1-.92.82,136.54,136.54,0,0,1-11.85,12.86,70.94,70.94,0,0,1-13.67,10.3v-.19a64.28,64.28,0,0,1-7,4.65c-2.25,1.28-4.46,2.53-6.65,3.74v-.18l-1.64.91a12.9,12.9,0,0,1-4.29,1.64c-1.4.25-2.7.43-3.92.55a8.29,8.29,0,0,1-6.19-1.64,7.8,7.8,0,0,1-2.92-5.66,54.27,54.27,0,0,1,.55-12c.11-1.09.24-2,.36-2.82a13.08,13.08,0,0,1,.55-2.28,61.43,61.43,0,0,1-6.2,6.38q-3.29,2.91-6.93,5.65l.18-.18-.91.73c-.73.48-1.46.94-2.19,1.36a20.88,20.88,0,0,1-2.91,1.37q-4.74,1.83-6.75-.55t-1.64-7.11A40.42,40.42,0,0,1,853.67,104a43.6,43.6,0,0,1,5.75-10.76,35.71,35.71,0,0,1,8.65-8.48A18.07,18.07,0,0,1,879.1,81.44Zm2.37,6.2a16.65,16.65,0,0,0-7.2,3.1,35,35,0,0,0-6.56,6.2,43.21,43.21,0,0,0-5.2,7.93A30.68,30.68,0,0,0,859.6,113a80,80,0,0,0,9.48-7.93,61,61,0,0,0,8-9.75c.73-1.22,1.55-2.46,2.46-3.74s1.79-2.64,2.64-4.1A1.61,1.61,0,0,1,881.47,87.64Z"/><path class="cls-4" d="M941.63,113h.18l.92-.73-3.29-4-4-4.74a11.82,11.82,0,0,1-3.1-6.65,15.42,15.42,0,0,1,.92-7,22.15,22.15,0,0,1,2.37-4c1-1.34,1.82-2.43,2.55-3.28a52,52,0,0,1,6.38-6.38L948,72.69a5,5,0,0,1,1.46-.82l2.37-1a2.62,2.62,0,0,0,.55-.09,2.46,2.46,0,0,1,.54-.09A4.89,4.89,0,0,1,955.49,72a1.68,1.68,0,0,1,.18,2.55l-.91,1.1a102.61,102.61,0,0,0-7.93,7.66,46.93,46.93,0,0,0-6.29,8.38,8,8,0,0,0-.82,3.19,5.26,5.26,0,0,0,.82,3.19l2.91,3.65v-.18c1.1,1.33,1.95,2.4,2.56,3.19s1.39,1.85,2.37,3.19q5.64-3.47,10.84-6.38t10.49-5.29q5.28-2.37,10.84-4.38t11.94-3.64a1.51,1.51,0,0,1,1.65.27,2,2,0,0,1,.72,1.55.33.33,0,0,0,.1.27.41.41,0,0,1,.09.28,1.63,1.63,0,0,1-1.46,1.64L990.13,94h.18l-8,4.19-12.77,6.38h.19l-8,5.11.19-.18c-1.22.85-2.49,1.67-3.83,2.46l-3.83,2.28.37.73,2.73,8a23.68,23.68,0,0,1,.36,4.19,12.26,12.26,0,0,1-.72,4.19A58,58,0,0,1,950,145.52a41.86,41.86,0,0,1-10.58,10.85,9.74,9.74,0,0,1-3.28,2.19,5.92,5.92,0,0,0-2,.91,14.76,14.76,0,0,1-6.93.82,11.73,11.73,0,0,1-5.74-2.37,11.46,11.46,0,0,1-3.65-4.92,12.79,12.79,0,0,1-.64-6.66,39,39,0,0,1,2.92-9.66,43.56,43.56,0,0,1,5.1-8.39,62.59,62.59,0,0,1,6.29-6.74c2.13-1.94,4.23-3.83,6.29-5.65Zm6.38,6a.56.56,0,0,0-.18-.37L946,120.09A111.41,111.41,0,0,0,936.8,128a52.21,52.21,0,0,0-7.93,9.75A20.39,20.39,0,0,0,925.59,148a3.89,3.89,0,0,0,1.28,3.56,3.32,3.32,0,0,0,3.46.45l-.18.19c1-.37,1.79-.7,2.46-1a5.25,5.25,0,0,0,1.55-1,37.55,37.55,0,0,0,9.57-9.3,60.78,60.78,0,0,0,6.29-11.3l-.18.18a9.5,9.5,0,0,0,.18-5.47A36.24,36.24,0,0,0,948,119Z"/><path class="cls-4" d="M1032.24,98.21a43.7,43.7,0,0,1-4.29,6q-2.46,2.92-5.19,5.83a82.06,82.06,0,0,1-10.49,9.48q-5.74,4.38-12.3,8.57h.18a34.67,34.67,0,0,1-6,3.19,15.18,15.18,0,0,1-7.29,1q-10-.56-10.94-11.31a29.16,29.16,0,0,1,.46-8.29,63.53,63.53,0,0,1,2.28-8.3q2.19-5.1,4.65-9.84a33.77,33.77,0,0,1,6.1-8.39,11.39,11.39,0,0,1,10-4.19,7.44,7.44,0,0,1,5.83,3.74c1.22,2.12,1.22,4.59,0,7.38a1.58,1.58,0,0,1-2.73.55,2.14,2.14,0,0,1-.91-2l-.37-.91.19.91a3.8,3.8,0,0,0-2.56-2,4,4,0,0,0-3.1.54c-.72.85-1.52,1.83-2.37,2.92a18.43,18.43,0,0,0-2,3.1,50.91,50.91,0,0,0-6.75,16,31.69,31.69,0,0,0-.82,4.29,36.41,36.41,0,0,0-.27,4.28,3,3,0,0,0,1.09,2.73,6,6,0,0,0,2.74.92,14.32,14.32,0,0,0,3.37-.37,9.8,9.8,0,0,0,3.19-1.46c1.1-.6,2.16-1.21,3.19-1.82s1.73-1,2.1-1.28l2.91-1.82-.18.18q6.19-4.55,12.95-9.75a144.36,144.36,0,0,0,12-10.3,3.62,3.62,0,0,1,1-1.46c.43-.36.94-.79,1.55-1.28a1.39,1.39,0,0,1,1.82-.36,1.79,1.79,0,0,1,.92,1.64Z"/><path class="cls-4" d="M1074.89,94a34.4,34.4,0,0,1-5.1,6.75q-4.2,3.83-8.66,7.84t-9.21,7.65a35.8,35.8,0,0,1-5.92,3.37q-3.37,1.56-7,3l-1.83.91a11.11,11.11,0,0,1-5.92.55,9.58,9.58,0,0,1-4.74-2.28,9.47,9.47,0,0,1-2.73-4.46,13.23,13.23,0,0,1-.28-6,40.93,40.93,0,0,1,1.73-6.2c.8-2.19,1.62-4.31,2.46-6.38a47,47,0,0,1,5.29-10,42.13,42.13,0,0,1,7.66-8.38l-.37.18a11,11,0,0,1,2.37-1.73l3.1-1.73a.85.85,0,0,0,.46-.19.87.87,0,0,1,.45-.18,11.15,11.15,0,0,1,2.47.37,6.07,6.07,0,0,1,2.27.91,7.59,7.59,0,0,1,.46,2.37,5.6,5.6,0,0,1-.27,2.37v-.18a34.26,34.26,0,0,1-2.1,4.74q-1.18,2.18-2.46,4.19l-1.28,1.64q-2.73,4-5.83,7.93a86.08,86.08,0,0,1-6.56,7.38,5,5,0,0,0-1.28,2.37,11,11,0,0,0-.36,2.74,2.59,2.59,0,0,0,2.18,1.64,36,36,0,0,0,4.93-1.55,20.56,20.56,0,0,0,4.55-2.46,66,66,0,0,0,12.49-7.48q5.75-4.37,11-9.11a15,15,0,0,0,2.64-2.1,14.71,14.71,0,0,1,2.65-2.09l2.37-1.46a1.52,1.52,0,0,1,2.19.45,1.67,1.67,0,0,1,0,2.28Z"/><path class="cls-4" d="M1140.33,97.67c-.48.61-.94,1.21-1.36,1.82a3.56,3.56,0,0,1-1.55,1.28q-5.12,5.83-9.76,10.39t-9,8.57a18.4,18.4,0,0,1-3,2.46c-1.76,1.27-3.43,2.46-5,3.55-1,.73-1.92,1.4-2.83,2s-1.85,1.27-2.82,2a3.38,3.38,0,0,1-2.19.73q-4.74,1.65-7.84-.18t-3.46-6.75q0-3.83.27-7.74t.64-7.93c.12-1.7.27-3.5.45-5.38s.46-3.8.82-5.74a12.43,12.43,0,0,0-3.28,1.91c-1,.79-2,1.67-3.1,2.64a62.49,62.49,0,0,0-6.1,5.84,28,28,0,0,0-4.65,6.92,10.64,10.64,0,0,1-2.37,2.37,2.64,2.64,0,0,1-3.1.19,3.32,3.32,0,0,1-2.37-2.28,13.31,13.31,0,0,1-.37-3l1.28-7.47c.49-2.31.91-4.59,1.28-6.84a62,62,0,0,1,1.45-6.65,4.45,4.45,0,0,1,.19-1.46,4.66,4.66,0,0,1,.54-1.1V86.73c0-.37.31-.67.91-.91a12.5,12.5,0,0,1,1.65-1.37,3,3,0,0,1,1.27-.64c1.58,0,2.49.52,2.74,1.55A12.09,12.09,0,0,1,1080,88l-.73,5.28v-.18l-.73,4.56v1.27l3.47-3.1a41.85,41.85,0,0,1,5-3.64c1.76-1.1,3.62-2.13,5.56-3.1,2.79-1.21,5-1.25,6.75-.09s2.48,3.31,2.37,6.47c-.13,1.7-.28,3.46-.46,5.29s-.4,3.58-.64,5.28l-.54,5.29a40.89,40.89,0,0,0-.37,5.56v5.38a3,3,0,0,0,.37.91,1.51,1.51,0,0,0,.91-.27c.24-.19.54-.4.91-.64q3.83-2.55,7.38-5.38t7-5.92a103,103,0,0,1,7.66-6.93q4-3.28,8-6.38l2-1.46a17.87,17.87,0,0,1,2-1.73c.73-.55,1.39-1.07,2-1.55l1.46-.91q.91-.73,2,.36l.54.91a1.59,1.59,0,0,1,0,2.55Z"/><path class="cls-4" d="M1171.87,94.2a16.07,16.07,0,0,1-.73,5.11,59.32,59.32,0,0,0,14.31-4.47,72.88,72.88,0,0,0,12.86-7.75,1.6,1.6,0,0,1,1.82-.27,2,2,0,0,1,1.09,1.55l.19.18a1.6,1.6,0,0,1-.1.46,2,2,0,0,0-.09.64l-1.09,2.73a48.82,48.82,0,0,1-14.49,10.12,56.53,56.53,0,0,1-17.23,4.1h-.91v.18a27.27,27.27,0,0,1-3.65,5.65,45.3,45.3,0,0,1-5.38,5.56,35.13,35.13,0,0,1-6.29,4.47,20.48,20.48,0,0,1-6.19,2.37q-6.21.56-8.76-3.1a12.64,12.64,0,0,1-2.18-7.11,20.16,20.16,0,0,1,1.27-6.83q1.28-3.56,2.19-6.66l.91-2.37V98a11.26,11.26,0,0,1-.54-4.56,14.63,14.63,0,0,1,1.09-4.55,16.31,16.31,0,0,1,2.37-4A11.26,11.26,0,0,1,1145.8,82a28.26,28.26,0,0,1,5-2.1,19.47,19.47,0,0,1,5.74-.82q7.11,0,11.21,4.65A15.41,15.41,0,0,1,1171.87,94.2Zm-13.31,13.31a26.44,26.44,0,0,1-13.3-2.92,23.16,23.16,0,0,0-1.83,5.93,33.94,33.94,0,0,0-.54,5.56,2,2,0,0,0,2.73,1.28,20.28,20.28,0,0,0,7.38-3.56A19.43,19.43,0,0,0,1158.56,107.51Zm1.83-7.84a8.79,8.79,0,0,0,1.73-.09c.18-.06.39-.33.64-.82h-.19c.37-1.21.67-2.31.92-3.28a11.39,11.39,0,0,0,.36-2.73,5.89,5.89,0,0,0-1.09-3.29,12,12,0,0,0-3.83-3.28q-5.84-.54-9.57,1.92T1146.53,96a.72.72,0,0,0,.55.73,41.72,41.72,0,0,0,6.65,2.09A29.52,29.52,0,0,0,1160.39,99.67Z"/></g></g></svg>